<?xml version="1.0" encoding="UTF-8"?>
<!DOCTYPE svg  PUBLIC '-//W3C//DTD SVG 1.1//EN'  'http://www.w3.org/Graphics/SVG/1.1/DTD/svg11.dtd'>
<svg id="Layer_1" width="512" height="512" enable-background="new 0 0 128 128" version="1.1" viewBox="0 0 128 128" xml:space="preserve" xmlns="http://www.w3.org/2000/svg">
	<circle cx="64" cy="64" r="64" fill="#E16B5A"/>
		<path d="m91 25c0 2.2-1.8 4-4 4h-46c-2.2 0-4-1.8-4-4v-2c0-2.2 1.8-4 4-4h46c2.2 0 4 1.8 4 4v2z" fill="#263740"/>
		<path d="m87 19h-4c2.2 0 4 1.8 4 4v2c0 2.2-1.8 4-4 4h4c2.2 0 4-1.8 4-4v-2c0-2.2-1.8-4-4-4z" fill="#1E2C33"/>
		<path d="m91 105c0 2.2-1.8 4-4 4h-46c-2.2 0-4-1.8-4-4v-2c0-2.2 1.8-4 4-4h46c2.2 0 4 1.8 4 4v2z" fill="#263740"/>
		<path d="m87 99h-4c2.2 0 4 1.8 4 4v2c0 2.2-1.8 4-4 4h4c2.2 0 4-1.8 4-4v-2c0-2.2-1.8-4-4-4z" fill="#1E2C33"/>
		<rect x="61" y="58" width="6" height="10" fill="#E6E6E6"/>
		<path d="M44,29v10c0,11.046,8.954,24,20,24s20-12.954,20-24V29H44z" fill="#E6E6E6"/>
		<path d="M80,29v11c0,9.141-6.134,19.579-14.508,22.912C75.841,61.816,84,49.543,84,39V29H80z" fill="#ccc"/>
		<path d="M44,99V89c0-11.046,8.954-24,20-24s20,12.954,20,24v10H44z" fill="#E6E6E6"/>
		<path d="M65.492,65.088C73.866,68.421,80,78.859,80,88v11h4V89C84,78.457,75.841,66.184,65.492,65.088z" fill="#ccc"/>
		<rect x="63" y="58" width="2" height="14" fill="#ccc"/>
		<path d="m64 72c-8.617 0-16 10.997-16 20v7h32v-7c0-9.003-7.383-20-16-20z" fill="#ccc"/>
		<path d="M49.232,45.759C51.68,52.715,57.486,59,64,59c5.188,0,9.923-3.985,12.875-9.12    C68.829,49.434,57.159,44.605,49.232,45.759z" fill="#ccc"/>
</svg>
